<?xml version="1.0" encoding="UTF-8"?>
<svg version="1.1" xmlns="http://www.w3.org/2000/svg" width="96" height="96">
<path d="M0 0 C31.68 0 63.36 0 96 0 C96 31.68 96 63.36 96 96 C64.32 96 32.64 96 0 96 C0 64.32 0 32.64 0 0 Z " fill="#FBDEB4" transform="translate(0,0)"/>
<path d="M0 0 C31.68 0 63.36 0 96 0 C96 17.49 96 34.98 96 53 C95.01 53.495 95.01 53.495 94 54 C94 52.68 94 51.36 94 50 C93.01 50 92.02 50 91 50 C91 50.99 91 51.98 91 53 C87.37 53 83.74 53 80 53 C80 51.68 80 50.36 80 49 C83.3 49 86.6 49 90 49 C90 48.34 90 47.68 90 47 C87.36 47 84.72 47 82 47 C82 46.01 82 45.02 82 44 C81.01 44 80.02 44 79 44 C79 42.68 79 41.36 79 40 C79.99 40 80.98 40 82 40 C82 39.34 82 38.68 82 38 C85.3 38 88.6 38 92 38 C92 38.99 92 39.98 92 41 C88.7 41 85.4 41 82 41 C82 41.66 82 42.32 82 43 C84.64 43 87.28 43 90 43 C90 43.99 90 44.98 90 46 C90.99 46 91.98 46 93 46 C93 43.03 93 40.06 93 37 C88.71 36.67 84.42 36.34 80 36 C80 36.99 80 37.98 80 39 C79.34 39 78.68 39 78 39 C78 38.01 78 37.02 78 36 C76.35 36 74.7 36 73 36 C74.98 36.495 74.98 36.495 77 37 C77.495 43.435 77.495 43.435 78 50 C77.01 50 76.02 50 75 50 C75 50.99 75 51.98 75 53 C72.36 53 69.72 53 67 53 C67 52.01 67 51.02 67 50 C66.01 50 65.02 50 64 50 C64 45.71 64 41.42 64 37 C64.99 37 65.98 37 67 37 C67 40.96 67 44.92 67 49 C69.31 49 71.62 49 74 49 C74 46.03 74 43.06 74 40 C73.34 40 72.68 40 72 40 C72 42.31 72 44.62 72 47 C70.68 47 69.36 47 68 47 C68 43.37 68 39.74 68 36 C61.4 36 54.8 36 48 36 C48 36.99 48 37.98 48 39 C47.01 39 46.02 39 45 39 C45 38.01 45 37.02 45 36 C41.7 36 38.4 36 35 36 C35 36.99 35 37.98 35 39 C34.34 39 33.68 39 33 39 C33 38.01 33 37.02 33 36 C23.76 36 14.52 36 5 36 C4.67 36.99 4.34 37.98 4 39 C3.505 39.495 3.505 39.495 3 40 C3.99 40 4.98 40 6 40 C6 39.01 6 38.02 6 37 C9.3 37 12.6 37 16 37 C16 38.32 16 39.64 16 41 C12.7 41 9.4 41 6 41 C6 41.66 6 42.32 6 43 C8.31 43 10.62 43 13 43 C13 43.99 13 44.98 13 46 C13.99 46 14.98 46 16 46 C16 47.32 16 48.64 16 50 C15.01 50 14.02 50 13 50 C13 50.99 13 51.98 13 53 C9.37 53 5.74 53 2 53 C2 51.68 2 50.36 2 49 C5.63 49 9.26 49 13 49 C13 48.34 13 47.68 13 47 C10.36 47 7.72 47 5 47 C5 46.01 5 45.02 5 44 C4.01 44 3.02 44 2 44 C1.67 45.32 1.34 46.64 1 48 C0.67 48 0.34 48 0 48 C0 32.16 0 16.32 0 0 Z " fill="#FDFADB" transform="translate(0,0)"/>
<path d="M0 0 C1.25361328 0.00966797 2.50722656 0.01933594 3.79882812 0.02929688 C5.10916016 0.05443359 6.41949219 0.07957031 7.76953125 0.10546875 C9.10480288 0.12051908 10.44009062 0.13420688 11.77539062 0.14648438 C15.04467701 0.18189181 18.31315218 0.23127985 21.58203125 0.29296875 C21.58203125 1.28296875 21.58203125 2.27296875 21.58203125 3.29296875 C22.24203125 3.29296875 22.90203125 3.29296875 23.58203125 3.29296875 C23.58203125 2.30296875 23.58203125 1.31296875 23.58203125 0.29296875 C26.88203125 0.29296875 30.18203125 0.29296875 33.58203125 0.29296875 C33.58203125 1.28296875 33.58203125 2.27296875 33.58203125 3.29296875 C34.57203125 3.29296875 35.56203125 3.29296875 36.58203125 3.29296875 C36.58203125 2.30296875 36.58203125 1.31296875 36.58203125 0.29296875 C43.18203125 0.29296875 49.78203125 0.29296875 56.58203125 0.29296875 C56.58203125 3.92296875 56.58203125 7.55296875 56.58203125 11.29296875 C57.90203125 11.29296875 59.22203125 11.29296875 60.58203125 11.29296875 C60.58203125 8.98296875 60.58203125 6.67296875 60.58203125 4.29296875 C61.24203125 4.29296875 61.90203125 4.29296875 62.58203125 4.29296875 C62.58203125 7.26296875 62.58203125 10.23296875 62.58203125 13.29296875 C60.27203125 13.29296875 57.96203125 13.29296875 55.58203125 13.29296875 C55.58203125 9.33296875 55.58203125 5.37296875 55.58203125 1.29296875 C54.59203125 1.29296875 53.60203125 1.29296875 52.58203125 1.29296875 C52.58203125 5.58296875 52.58203125 9.87296875 52.58203125 14.29296875 C53.57203125 14.29296875 54.56203125 14.29296875 55.58203125 14.29296875 C55.58203125 15.28296875 55.58203125 16.27296875 55.58203125 17.29296875 C58.22203125 17.29296875 60.86203125 17.29296875 63.58203125 17.29296875 C63.58203125 16.30296875 63.58203125 15.31296875 63.58203125 14.29296875 C64.57203125 14.29296875 65.56203125 14.29296875 66.58203125 14.29296875 C66.41703125 13.63296875 66.25203125 12.97296875 66.08203125 12.29296875 C65.46019826 8.56197081 65.51794199 5.07423497 65.58203125 1.29296875 C64.59203125 1.29296875 63.60203125 1.29296875 62.58203125 1.29296875 C62.25203125 1.95296875 61.92203125 2.61296875 61.58203125 3.29296875 C61.58203125 2.30296875 61.58203125 1.31296875 61.58203125 0.29296875 C63.23203125 0.29296875 64.88203125 0.29296875 66.58203125 0.29296875 C66.58203125 1.28296875 66.58203125 2.27296875 66.58203125 3.29296875 C67.24203125 3.29296875 67.90203125 3.29296875 68.58203125 3.29296875 C68.58203125 2.30296875 68.58203125 1.31296875 68.58203125 0.29296875 C70.72779762 0.26610937 72.8736577 0.24663787 75.01953125 0.23046875 C76.21449219 0.21886719 77.40945312 0.20726562 78.640625 0.1953125 C81.58203125 0.29296875 81.58203125 0.29296875 82.58203125 1.29296875 C82.65447178 3.31261074 82.66580313 5.33463999 82.64453125 7.35546875 C82.63550781 8.46019531 82.62648438 9.56492187 82.6171875 10.703125 C82.60558594 11.55777344 82.59398438 12.41242187 82.58203125 13.29296875 C82.08703125 11.80796875 82.08703125 11.80796875 81.58203125 10.29296875 C80.59203125 10.29296875 79.60203125 10.29296875 78.58203125 10.29296875 C78.58203125 9.30296875 78.58203125 8.31296875 78.58203125 7.29296875 C75.94203125 7.29296875 73.30203125 7.29296875 70.58203125 7.29296875 C70.58203125 6.63296875 70.58203125 5.97296875 70.58203125 5.29296875 C73.88203125 5.29296875 77.18203125 5.29296875 80.58203125 5.29296875 C80.58203125 4.30296875 80.58203125 3.31296875 80.58203125 2.29296875 C77.28203125 2.29296875 73.98203125 2.29296875 70.58203125 2.29296875 C70.58203125 2.95296875 70.58203125 3.61296875 70.58203125 4.29296875 C69.59203125 4.29296875 68.60203125 4.29296875 67.58203125 4.29296875 C67.58203125 5.61296875 67.58203125 6.93296875 67.58203125 8.29296875 C68.57203125 8.29296875 69.56203125 8.29296875 70.58203125 8.29296875 C70.58203125 9.28296875 70.58203125 10.27296875 70.58203125 11.29296875 C73.22203125 11.29296875 75.86203125 11.29296875 78.58203125 11.29296875 C78.58203125 11.95296875 78.58203125 12.61296875 78.58203125 13.29296875 C75.28203125 13.29296875 71.98203125 13.29296875 68.58203125 13.29296875 C68.58203125 14.61296875 68.58203125 15.93296875 68.58203125 17.29296875 C72.21203125 17.29296875 75.84203125 17.29296875 79.58203125 17.29296875 C79.58203125 16.30296875 79.58203125 15.31296875 79.58203125 14.29296875 C80.57203125 14.29296875 81.56203125 14.29296875 82.58203125 14.29296875 C82.25203125 16.27296875 81.92203125 18.25296875 81.58203125 20.29296875 C80.92203125 20.29296875 80.26203125 20.29296875 79.58203125 20.29296875 C79.58203125 20.95296875 79.58203125 21.61296875 79.58203125 22.29296875 C75.29203125 22.29296875 71.00203125 22.29296875 66.58203125 22.29296875 C66.58203125 21.63296875 66.58203125 20.97296875 66.58203125 20.29296875 C65.92203125 20.29296875 65.26203125 20.29296875 64.58203125 20.29296875 C64.58203125 20.95296875 64.58203125 21.61296875 64.58203125 22.29296875 C60.95203125 22.29296875 57.32203125 22.29296875 53.58203125 22.29296875 C53.58203125 21.63296875 53.58203125 20.97296875 53.58203125 20.29296875 C52.92203125 20.29296875 52.26203125 20.29296875 51.58203125 20.29296875 C51.58203125 17.32296875 51.58203125 14.35296875 51.58203125 11.29296875 C49.93203125 11.29296875 48.28203125 11.29296875 46.58203125 11.29296875 C46.58203125 14.92296875 46.58203125 18.55296875 46.58203125 22.29296875 C44.93203125 22.29296875 43.28203125 22.29296875 41.58203125 22.29296875 C41.58203125 18.66296875 41.58203125 15.03296875 41.58203125 11.29296875 C39.93203125 11.29296875 38.28203125 11.29296875 36.58203125 11.29296875 C36.58203125 14.92296875 36.58203125 18.55296875 36.58203125 22.29296875 C34.93203125 22.29296875 33.28203125 22.29296875 31.58203125 22.29296875 C31.58203125 21.63296875 31.58203125 20.97296875 31.58203125 20.29296875 C29.93203125 20.29296875 28.28203125 20.29296875 26.58203125 20.29296875 C26.58203125 20.95296875 26.58203125 21.61296875 26.58203125 22.29296875 C24.60203125 22.29296875 22.62203125 22.29296875 20.58203125 22.29296875 C20.58203125 18.66296875 20.58203125 15.03296875 20.58203125 11.29296875 C19.26203125 11.29296875 17.94203125 11.29296875 16.58203125 11.29296875 C16.58203125 14.92296875 16.58203125 18.55296875 16.58203125 22.29296875 C14.60203125 22.29296875 12.62203125 22.29296875 10.58203125 22.29296875 C9.29885233 18.44343199 9.51559488 15.3455874 9.58203125 11.29296875 C8.59203125 11.29296875 7.60203125 11.29296875 6.58203125 11.29296875 C6.58203125 14.26296875 6.58203125 17.23296875 6.58203125 20.29296875 C5.59203125 20.29296875 4.60203125 20.29296875 3.58203125 20.29296875 C3.58203125 20.95296875 3.58203125 21.61296875 3.58203125 22.29296875 C-0.70796875 22.29296875 -4.99796875 22.29296875 -9.41796875 22.29296875 C-11.43930434 18.25029756 -11.78182543 16.65924892 -11.41796875 12.29296875 C-10.41796875 9.91796875 -10.41796875 9.91796875 -9.41796875 8.29296875 C-8.42796875 8.29296875 -7.43796875 8.29296875 -6.41796875 8.29296875 C-6.41796875 9.28296875 -6.41796875 10.27296875 -6.41796875 11.29296875 C-3.77796875 11.29296875 -1.13796875 11.29296875 1.58203125 11.29296875 C1.58203125 11.95296875 1.58203125 12.61296875 1.58203125 13.29296875 C-2.04796875 13.29296875 -5.67796875 13.29296875 -9.41796875 13.29296875 C-9.41796875 14.61296875 -9.41796875 15.93296875 -9.41796875 17.29296875 C-5.78796875 17.29296875 -2.15796875 17.29296875 1.58203125 17.29296875 C1.58203125 16.30296875 1.58203125 15.31296875 1.58203125 14.29296875 C2.57203125 14.29296875 3.56203125 14.29296875 4.58203125 14.29296875 C4.58203125 12.97296875 4.58203125 11.65296875 4.58203125 10.29296875 C3.59203125 10.29296875 2.60203125 10.29296875 1.58203125 10.29296875 C1.58203125 9.30296875 1.58203125 8.31296875 1.58203125 7.29296875 C-0.72796875 7.29296875 -3.03796875 7.29296875 -5.41796875 7.29296875 C-5.41796875 6.63296875 -5.41796875 5.97296875 -5.41796875 5.29296875 C-2.11796875 5.29296875 1.18203125 5.29296875 4.58203125 5.29296875 C4.58203125 3.97296875 4.58203125 2.65296875 4.58203125 1.29296875 C1.28203125 1.29296875 -2.01796875 1.29296875 -5.41796875 1.29296875 C-5.41796875 2.28296875 -5.41796875 3.27296875 -5.41796875 4.29296875 C-6.40796875 4.29296875 -7.39796875 4.29296875 -8.41796875 4.29296875 C-8.74796875 5.28296875 -9.07796875 6.27296875 -9.41796875 7.29296875 C-9.41796875 3.29296875 -9.41796875 3.29296875 -8.3190918 1.5612793 C-5.52879459 -0.30023271 -3.32889978 -0.04518868 0 0 Z " fill="#772513" transform="translate(11.41796875,35.70703125)"/>
<path d="M0 0 C1.65 0 3.3 0 5 0 C5 0.99 5 1.98 5 3 C5.66 3 6.32 3 7 3 C7 2.01 7 1.02 7 0 C9.14576637 -0.02685938 11.29162645 -0.04633088 13.4375 -0.0625 C14.63246094 -0.07410156 15.82742187 -0.08570313 17.05859375 -0.09765625 C20 0 20 0 21 1 C21.07244053 3.01964199 21.08377188 5.04167124 21.0625 7.0625 C21.05347656 8.16722656 21.04445312 9.27195312 21.03515625 10.41015625 C21.02355469 11.26480469 21.01195312 12.11945312 21 13 C20.505 11.515 20.505 11.515 20 10 C19.01 10 18.02 10 17 10 C17 9.01 17 8.02 17 7 C14.36 7 11.72 7 9 7 C9 6.34 9 5.68 9 5 C12.3 5 15.6 5 19 5 C19 4.01 19 3.02 19 2 C15.7 2 12.4 2 9 2 C9 2.66 9 3.32 9 4 C8.01 4 7.02 4 6 4 C6 5.32 6 6.64 6 8 C6.99 8 7.98 8 9 8 C9 8.99 9 9.98 9 11 C11.64 11 14.28 11 17 11 C17 11.66 17 12.32 17 13 C13.7 13 10.4 13 7 13 C7 14.32 7 15.64 7 17 C10.63 17 14.26 17 18 17 C18 16.01 18 15.02 18 14 C18.99 14 19.98 14 21 14 C20.67 15.98 20.34 17.96 20 20 C19.34 20 18.68 20 18 20 C18 20.66 18 21.32 18 22 C13.71 22 9.42 22 5 22 C5 21.34 5 20.68 5 20 C4.34 20 3.68 20 3 20 C3 20.66 3 21.32 3 22 C-0.63 22 -4.26 22 -8 22 C-8 21.34 -8 20.68 -8 20 C-8.66 20 -9.32 20 -10 20 C-10 17.03 -10 14.06 -10 11 C-11.65 11 -13.3 11 -15 11 C-15 9.35 -15 7.7 -15 6 C-13.35 6 -11.7 6 -10 6 C-8.64560332 8.70879335 -8.93498549 11.00933268 -9 14 C-8.01 14 -7.02 14 -6 14 C-6 14.99 -6 15.98 -6 17 C-3.36 17 -0.72 17 2 17 C2 16.01 2 15.02 2 14 C2.99 14 3.98 14 5 14 C4.7525 13.01 4.7525 13.01 4.5 12 C3.87816701 8.26900206 3.93591074 4.78126622 4 1 C3.01 1 2.02 1 1 1 C0.67 1.66 0.34 2.32 0 3 C0 2.01 0 1.02 0 0 Z " fill="#651D13" transform="translate(73,36)"/>
<path d="M0 0 C1.81274414 0.01450195 1.81274414 0.01450195 3.66210938 0.02929688 C5.55606445 0.06700195 5.55606445 0.06700195 7.48828125 0.10546875 C9.39963867 0.12577148 9.39963867 0.12577148 11.34960938 0.14648438 C14.50042182 0.18188676 17.6503917 0.23127085 20.80078125 0.29296875 C20.80078125 0.62296875 20.80078125 0.95296875 20.80078125 1.29296875 C16.18078125 1.29296875 11.56078125 1.29296875 6.80078125 1.29296875 C6.80078125 2.61296875 6.80078125 3.93296875 6.80078125 5.29296875 C8.45078125 5.29296875 10.10078125 5.29296875 11.80078125 5.29296875 C11.47078125 7.27296875 11.14078125 9.25296875 10.80078125 11.29296875 C9.48078125 11.29296875 8.16078125 11.29296875 6.80078125 11.29296875 C6.80078125 14.26296875 6.80078125 17.23296875 6.80078125 20.29296875 C5.81078125 20.29296875 4.82078125 20.29296875 3.80078125 20.29296875 C3.80078125 20.95296875 3.80078125 21.61296875 3.80078125 22.29296875 C-0.48921875 22.29296875 -4.77921875 22.29296875 -9.19921875 22.29296875 C-11.22055434 18.25029756 -11.56307543 16.65924892 -11.19921875 12.29296875 C-10.19921875 9.91796875 -10.19921875 9.91796875 -9.19921875 8.29296875 C-8.20921875 8.29296875 -7.21921875 8.29296875 -6.19921875 8.29296875 C-6.19921875 9.28296875 -6.19921875 10.27296875 -6.19921875 11.29296875 C-3.55921875 11.29296875 -0.91921875 11.29296875 1.80078125 11.29296875 C1.80078125 11.95296875 1.80078125 12.61296875 1.80078125 13.29296875 C-1.82921875 13.29296875 -5.45921875 13.29296875 -9.19921875 13.29296875 C-9.19921875 14.61296875 -9.19921875 15.93296875 -9.19921875 17.29296875 C-5.56921875 17.29296875 -1.93921875 17.29296875 1.80078125 17.29296875 C1.80078125 16.30296875 1.80078125 15.31296875 1.80078125 14.29296875 C2.79078125 14.29296875 3.78078125 14.29296875 4.80078125 14.29296875 C4.80078125 12.97296875 4.80078125 11.65296875 4.80078125 10.29296875 C3.81078125 10.29296875 2.82078125 10.29296875 1.80078125 10.29296875 C1.80078125 9.30296875 1.80078125 8.31296875 1.80078125 7.29296875 C-0.50921875 7.29296875 -2.81921875 7.29296875 -5.19921875 7.29296875 C-5.19921875 6.63296875 -5.19921875 5.97296875 -5.19921875 5.29296875 C-1.89921875 5.29296875 1.40078125 5.29296875 4.80078125 5.29296875 C4.80078125 3.97296875 4.80078125 2.65296875 4.80078125 1.29296875 C1.50078125 1.29296875 -1.79921875 1.29296875 -5.19921875 1.29296875 C-5.19921875 2.28296875 -5.19921875 3.27296875 -5.19921875 4.29296875 C-6.18921875 4.29296875 -7.17921875 4.29296875 -8.19921875 4.29296875 C-8.52921875 5.28296875 -8.85921875 6.27296875 -9.19921875 7.29296875 C-9.19921875 3.29296875 -9.19921875 3.29296875 -8.08666992 1.5612793 C-5.35632625 -0.27342971 -3.26665083 -0.04600917 0 0 Z " fill="#671F14" transform="translate(11.19921875,35.70703125)"/>
<path d="M0 0 C2.64 0 5.28 0 8 0 C8 0.99 8 1.98 8 3 C8.99 3 9.98 3 11 3 C11 7.29 11 11.58 11 16 C10.01 16 9.02 16 8 16 C8 15.01 8 14.02 8 13 C5.36 13 2.72 13 0 13 C0 13.99 0 14.98 0 16 C-0.99 16 -1.98 16 -3 16 C-3 11.71 -3 7.42 -3 3 C-2.01 3 -1.02 3 0 3 C0 2.01 0 1.02 0 0 Z " fill="#F5C03E" transform="translate(36,37)"/>
<path d="M0 0 C1.24546405 2.49092811 0.7767578 3.41080733 0 6 C-1.65 6 -3.3 6 -5 6 C-4.83628906 6.70511719 -4.67257813 7.41023438 -4.50390625 8.13671875 C-3.98300176 11.09658688 -3.90133268 13.81061273 -3.9375 16.8125 C-3.94652344 17.78832031 -3.95554687 18.76414062 -3.96484375 19.76953125 C-3.97644531 20.50558594 -3.98804688 21.24164063 -4 22 C-5.98 22 -7.96 22 -10 22 C-11.98807394 16.03577817 -11.29811043 10.74527607 -9 5 C-10.65 5 -12.3 5 -14 5 C-14 3.68 -14 2.36 -14 1 C-9.38 0.67 -4.76 0.34 0 0 Z " fill="#90452A" transform="translate(32,36)"/>
<path d="M0 0 C3.3 0 6.6 0 10 0 C10 1.32 10 2.64 10 4 C6.7 4 3.4 4 0 4 C0 4.66 0 5.32 0 6 C2.31 6 4.62 6 7 6 C7 6.99 7 7.98 7 9 C7.99 9 8.98 9 10 9 C10 10.32 10 11.64 10 13 C9.01 13 8.02 13 7 13 C7 13.99 7 14.98 7 16 C3.37 16 -0.26 16 -4 16 C-4 14.68 -4 13.36 -4 12 C-0.37 12 3.26 12 7 12 C7 11.34 7 10.68 7 10 C4.36 10 1.72 10 -1 10 C-1 9.01 -1 8.02 -1 7 C-1.99 7 -2.98 7 -4 7 C-4.33 7.66 -4.66 8.32 -5 9 C-5 7.35 -5 5.7 -5 4 C-3.35 3.67 -1.7 3.34 0 3 C0 2.01 0 1.02 0 0 Z " fill="#FAD455" transform="translate(6,37)"/>
<path d="M0 0 C3.3 0 6.6 0 10 0 C10 0.99 10 1.98 10 3 C6.7 3 3.4 3 0 3 C0 3.66 0 4.32 0 5 C2.64 5 5.28 5 8 5 C8 5.99 8 6.98 8 8 C9.65 7.67 11.3 7.34 13 7 C13 9.31 13 11.62 13 14 C12.67 13.34 12.34 12.68 12 12 C11.01 12 10.02 12 9 12 C9 12.99 9 13.98 9 15 C5.37 15 1.74 15 -2 15 C-2 13.68 -2 12.36 -2 11 C1.3 11 4.6 11 8 11 C8 10.34 8 9.68 8 9 C5.36 9 2.72 9 0 9 C0 8.01 0 7.02 0 6 C-0.99 6 -1.98 6 -3 6 C-3 4.68 -3 3.36 -3 2 C-2.01 2 -1.02 2 0 2 C0 1.34 0 0.68 0 0 Z " fill="#FBEB64" transform="translate(82,38)"/>
<path d="M0 0 C0.99 0 1.98 0 3 0 C3 3.96 3 7.92 3 12 C5.31 12 7.62 12 10 12 C10 9.03 10 6.06 10 3 C9.34 3 8.68 3 8 3 C8.33 2.01 8.66 1.02 9 0 C10.32 0 11.64 0 13 0 C13.33 4.29 13.66 8.58 14 13 C13.01 13 12.02 13 11 13 C11 13.99 11 14.98 11 16 C8.36 16 5.72 16 3 16 C3 15.01 3 14.02 3 13 C2.01 13 1.02 13 0 13 C0 8.71 0 4.42 0 0 Z " fill="#EDC64E" transform="translate(64,37)"/>
<path d="M0 0 C3.3 0 6.6 0 10 0 C10 0.33 10 0.66 10 1 C7.03 1 4.06 1 1 1 C1 1.99 1 2.98 1 4 C0.01 4 -0.98 4 -2 4 C-2 8.29 -2 12.58 -2 17 C-1.01 17 -0.02 17 1 17 C1 16.01 1 15.02 1 14 C3.31 14 5.62 14 8 14 C8 15.65 8 17.3 8 19 C6.35 19 4.7 19 3 19 C3 19.99 3 20.98 3 22 C1.02 22 -0.96 22 -3 22 C-3 18.37 -3 14.74 -3 11 C-4.65 11 -6.3 11 -8 11 C-8 9.35 -8 7.7 -8 6 C-6.35 6 -4.7 6 -3 6 C-2.67 4.68 -2.34 3.36 -2 2 C-1.34 2.33 -0.68 2.66 0 3 C0 2.01 0 1.02 0 0 Z " fill="#5C1510" transform="translate(35,36)"/>
<path d="M0 0 C0.99 0 1.98 0 3 0 C3 0.99 3 1.98 3 3 C5.64 3 8.28 3 11 3 C11 3.66 11 4.32 11 5 C7.37 5 3.74 5 0 5 C0 6.32 0 7.64 0 9 C3.63 9 7.26 9 11 9 C11.33 10.32 11.66 11.64 12 13 C7.71 13 3.42 13 -1 13 C-2.33928571 3.89285714 -2.33928571 3.89285714 0 0 Z " fill="#7F2813" transform="translate(2,44)"/>
<path d="M0 0 C4.29 0 8.58 0 13 0 C13 1.32 13 2.64 13 4 C11.35 4 9.7 4 8 4 C8 7.96 8 11.92 8 16 C7.01 16 6.02 16 5 16 C5 12.04 5 8.08 5 4 C3.35 4 1.7 4 0 4 C0 2.68 0 1.36 0 0 Z " fill="#EFE26E" transform="translate(49,37)"/>
<path d="M0 0 C2.14576637 -0.02685938 4.29162645 -0.04633088 6.4375 -0.0625 C7.63246094 -0.07410156 8.82742187 -0.08570313 10.05859375 -0.09765625 C13 0 13 0 14 1 C14.07244053 3.01964199 14.08377188 5.04167124 14.0625 7.0625 C14.05347656 8.16722656 14.04445313 9.27195312 14.03515625 10.41015625 C14.02355469 11.26480469 14.01195313 12.11945312 14 13 C13.67 12.01 13.34 11.02 13 10 C12.01 10 11.02 10 10 10 C10 9.01 10 8.02 10 7 C7.36 7 4.72 7 2 7 C2 6.34 2 5.68 2 5 C5.3 5 8.6 5 12 5 C12 4.01 12 3.02 12 2 C8.7 2 5.4 2 2 2 C1.67 2.66 1.34 3.32 1 4 C0.67 2.68 0.34 1.36 0 0 Z " fill="#93563C" transform="translate(80,36)"/>
<path d="M0 0 C3.96 0 7.92 0 12 0 C12 0.99 12 1.98 12 3 C10.35 3 8.7 3 7 3 C7 6.96 7 10.92 7 15 C6.01 15 5.02 15 4 15 C4 11.04 4 7.08 4 3 C2.68 3 1.36 3 0 3 C0 2.01 0 1.02 0 0 Z " fill="#FEFA6A" transform="translate(19,38)"/>
<path d="M0 0 C1.65 0 3.3 0 5 0 C6.35439668 2.70879335 6.06501451 5.00933268 6 8 C6.99 8 7.98 8 9 8 C9 10.31 9 12.62 9 15 C11.64 15 14.28 15 17 15 C17 15.33 17 15.66 17 16 C13.7 16 10.4 16 7 16 C7 15.34 7 14.68 7 14 C6.34 14 5.68 14 5 14 C5 11.03 5 8.06 5 5 C3.35 5 1.7 5 0 5 C0 3.35 0 1.7 0 0 Z " fill="#54140F" transform="translate(58,42)"/>
<path d="M0 0 C0.99 0 1.98 0 3 0 C2.67 1.98 2.34 3.96 2 6 C-1.14930893 7.04976964 -3.38814456 7.10131595 -6.6875 7.0625 C-7.68136719 7.05347656 -8.67523438 7.04445313 -9.69921875 7.03515625 C-10.83810547 7.01775391 -10.83810547 7.01775391 -12 7 C-11.67 5.68 -11.34 4.36 -11 3 C-7.37 3 -3.74 3 0 3 C0 2.01 0 1.02 0 0 Z " fill="#832511" transform="translate(91,50)"/>
<path d="M0 0 C2.64 0 5.28 0 8 0 C8 0.99 8 1.98 8 3 C8.66 3 9.32 3 10 3 C10 4.65 10 6.3 10 8 C9.34 8 8.68 8 8 8 C8 6.68 8 5.36 8 4 C5.36 4 2.72 4 0 4 C0 5.32 0 6.64 0 8 C-0.66 8 -1.32 8 -2 8 C-2 6.35 -2 4.7 -2 3 C-1.34 3 -0.68 3 0 3 C0 2.01 0 1.02 0 0 Z " fill="#F1E468" transform="translate(36,37)"/>
<path d="M0 0 C0 2.31 0 4.62 0 7 C-0.99 7 -1.98 7 -3 7 C-3 7.66 -3 8.32 -3 9 C-7.29 9 -11.58 9 -16 9 C-15.67 8.34 -15.34 7.68 -15 7 C-11.37 7.33 -7.74 7.66 -4 8 C-4.33 5.69 -4.66 3.38 -5 1 C-2 0 -2 0 0 0 Z " fill="#571611" transform="translate(18,49)"/>
<path d="M0 0 C2.64 0 5.28 0 8 0 C8 1.65 8 3.3 8 5 C5.36 5 2.72 5 0 5 C0 3.35 0 1.7 0 0 Z " fill="#7D2D16" transform="translate(36,41)"/>
<path d="M0 0 C3.3 0 6.6 0 10 0 C10 1.32 10 2.64 10 4 C6.7 4 3.4 4 0 4 C0 2.68 0 1.36 0 0 Z " fill="#ECDD67" transform="translate(6,37)"/>
<path d="M0 0 C0.33 0 0.66 0 1 0 C1 3.63 1 7.26 1 11 C-0.65 11 -2.3 11 -4 11 C-4 10.34 -4 9.68 -4 9 C-5.65 9 -7.3 9 -9 9 C-9 8.67 -9 8.34 -9 8 C-7.35 8 -5.7 8 -4 8 C-4 6.35 -4 4.7 -4 3 C-3.67 3.99 -3.34 4.98 -3 6 C-2.01 6 -1.02 6 0 6 C0 4.02 0 2.04 0 0 Z " fill="#8C3A24" transform="translate(47,47)"/>
<path d="M0 0 C0.33 0 0.66 0 1 0 C1 1.65 1 3.3 1 5 C1.66 5 2.32 5 3 5 C3 5.66 3 6.32 3 7 C5.31 7.33 7.62 7.66 10 8 C10 8.33 10 8.66 10 9 C7.69 9 5.38 9 3 9 C3 10.32 3 11.64 3 13 C2.01 13 1.02 13 0 13 C0 8.71 0 4.42 0 0 Z " fill="#F8B726" transform="translate(33,40)"/>
<path d="M0 0 C0.99 0 1.98 0 3 0 C3 3.96 3 7.92 3 12 C2.01 12.33 1.02 12.66 0 13 C0 8.71 0 4.42 0 0 Z " fill="#F7D247" transform="translate(64,37)"/>
<path d="M0 0 C3.3 0 6.6 0 10 0 C10 0.99 10 1.98 10 3 C6.7 3 3.4 3 0 3 C0 3.66 0 4.32 0 5 C-0.66 5 -1.32 5 -2 5 C-2.33 4.01 -2.66 3.02 -3 2 C-2.01 2 -1.02 2 0 2 C0 1.34 0 0.68 0 0 Z " fill="#FCF77E" transform="translate(82,38)"/>
<path d="M0 0 C0.33 0 0.66 0 1 0 C1 2.31 1 4.62 1 7 C2.32 7 3.64 7 5 7 C5 4.69 5 2.38 5 0 C5.66 0 6.32 0 7 0 C7 2.97 7 5.94 7 9 C4.69 9 2.38 9 0 9 C0 6.03 0 3.06 0 0 Z " fill="#742819" transform="translate(67,40)"/>
<path d="M0 0 C3.63 0 7.26 0 11 0 C11 0.99 11 1.98 11 3 C7.37 3 3.74 3 0 3 C0 2.01 0 1.02 0 0 Z " fill="#FBC72E" transform="translate(80,50)"/>
<path d="M0 0 C3.63 0 7.26 0 11 0 C11 0.99 11 1.98 11 3 C7.37 3 3.74 3 0 3 C0 2.01 0 1.02 0 0 Z " fill="#F8A323" transform="translate(2,50)"/>
<path d="M0 0 C0.99 0 1.98 0 3 0 C3 0.99 3 1.98 3 3 C5.64 3 8.28 3 11 3 C11 3.66 11 4.32 11 5 C7.04 5 3.08 5 -1 5 C-0.67 3.35 -0.34 1.7 0 0 Z " fill="#692114" transform="translate(2,44)"/>
<path d="M0 0 C2.64 0 5.28 0 8 0 C8 1.32 8 2.64 8 4 C5.36 4 2.72 4 0 4 C0 2.68 0 1.36 0 0 Z " fill="#8B250D" transform="translate(67,53)"/>
<path d="M0 0 C1.98 0 3.96 0 6 0 C6 1.65 6 3.3 6 5 C4.02 5.33 2.04 5.66 0 6 C0 4.02 0 2.04 0 0 Z " fill="#56110E" transform="translate(37,50)"/>
<path d="M0 0 C1.98 0 3.96 0 6 0 C6 1.65 6 3.3 6 5 C4.02 5 2.04 5 0 5 C0 3.35 0 1.7 0 0 Z " fill="#591210" transform="translate(47,42)"/>
<path d="M0 0 C3 3 3 3 3.29296875 5.26171875 C3.25816406 6.06222656 3.22335938 6.86273438 3.1875 7.6875 C3.16042969 8.49574219 3.13335938 9.30398437 3.10546875 10.13671875 C3.07066406 10.75160156 3.03585938 11.36648437 3 12 C2.01 12 1.02 12 0 12 C0 8.04 0 4.08 0 0 Z " fill="#FBB025" transform="translate(23,41)"/>
<path d="M0 0 C0.33 0 0.66 0 1 0 C1.33 2.64 1.66 5.28 2 8 C0.02 8 -1.96 8 -4 8 C-3.67 6.35 -3.34 4.7 -3 3 C-2.01 3 -1.02 3 0 3 C0 2.01 0 1.02 0 0 Z " fill="#852B17" transform="translate(36,50)"/>
<path d="M0 0 C0.33 0 0.66 0 1 0 C1 3.96 1 7.92 1 12 C0.01 12 -0.98 12 -2 12 C-2 9.36 -2 6.72 -2 4 C-1.34 4 -0.68 4 0 4 C0 2.68 0 1.36 0 0 Z " fill="#FDBF2A" transform="translate(56,41)"/>
<path d="M0 0 C0.33 0 0.66 0 1 0 C1 2.31 1 4.62 1 7 C0.67 6.34 0.34 5.68 0 5 C-4.62 5 -9.24 5 -14 5 C-14 4.67 -14 4.34 -14 4 C-10.7 4 -7.4 4 -4 4 C-4 3.34 -4 2.68 -4 2 C-3.01 2 -2.02 2 -1 2 C-0.67 1.34 -0.34 0.68 0 0 Z " fill="#E7C661" transform="translate(94,45)"/>
<path d="M0 0 C2.64 0 5.28 0 8 0 C8 0.99 8 1.98 8 3 C5.36 3 2.72 3 0 3 C0 2.01 0 1.02 0 0 Z " fill="#FBC62E" transform="translate(67,50)"/>
<path d="M0 0 C3.3 0 6.6 0 10 0 C10.33 2.31 10.66 4.62 11 7 C10.67 6.01 10.34 5.02 10 4 C9.01 4 8.02 4 7 4 C7 3.01 7 2.02 7 1 C4.69 1 2.38 1 0 1 C0 0.67 0 0.34 0 0 Z " fill="#6F2416" transform="translate(83,42)"/>
<path d="M0 0 C0 1.98 0 3.96 0 6 C-0.33 5.34 -0.66 4.68 -1 4 C-1.99 4 -2.98 4 -4 4 C-4.33 4.66 -4.66 5.32 -5 6 C-5 4.35 -5 2.7 -5 1 C-3 0 -3 0 0 0 Z " fill="#DFA74C" transform="translate(6,40)"/>
</svg>
